<svg version="1.1" xmlns="http://www.w3.org/2000/svg" xmlns:xlink="http://www.w3.org/1999/xlink" width="185.41394" height="259.07014" viewBox="0,0,185.41394,259.07014"><g transform="translate(-147.5,-87)"><g data-paper-data="{&quot;isPaintingLayer&quot;:true}" fill-rule="nonzero" stroke-linejoin="miter" stroke-miterlimit="10" stroke-dasharray="" stroke-dashoffset="0" style="mix-blend-mode: normal"><path d="M329.5,180c0,49.70563 -40.07051,90 -89.5,90c-49.42949,0 -89.5,-40.29437 -89.5,-90c0,-49.70563 40.07051,-90 89.5,-90c49.42949,0 89.5,40.29437 89.5,90z" fill="#ffffff" stroke="#000000" stroke-width="6" stroke-linecap="butt"/><path d="M153.9375,177c0,5.48378 -0.43234,10.8575 0.72381,17.54773c2.85094,16.49739 11.28027,35.91934 21.60034,47.66753c7.12077,8.10616 18.26693,15.13129 28.17248,19.01958c8.90764,3.49658 17.00338,4.26516 17.00338,4.26516c0,0 -47.5,-45.77306 -47.5,-82.5c0,-36.72694 31.5,-81.5 31.5,-81.5c0,0 -13.97003,4.8498 -26.3684,17.09594c-13.31865,13.15512 -25.1316,39.38346 -25.1316,58.40406z" fill="#e8e8e8" stroke="none" stroke-width="0" stroke-linecap="butt"/><text transform="translate(173.9375,332) scale(1.15005,1.15005)" font-size="40" xml:space="preserve" fill="#ffffff" fill-rule="nonzero" stroke="none" stroke-width="1" stroke-linecap="butt" stroke-linejoin="miter" stroke-miterlimit="10" stroke-dasharray="" stroke-dashoffset="0" font-family="Sans Serif" font-weight="normal" text-anchor="start" style="mix-blend-mode: normal"><tspan x="0" dy="0">george</tspan></text><path d="M270.9375,219.5c0,0 -34.50295,4.07344 -46.96197,3.707c-9.21287,-0.27097 -21.03803,-5.707 -21.03803,-5.707" fill="none" stroke="#000000" stroke-width="8.5" stroke-linecap="round"/><path d="M220.9375,151c0,10.76955 -8.73045,19.5 -19.5,19.5c-10.76955,0 -19.5,-8.73045 -19.5,-19.5c0,-10.76955 8.73045,-19.5 19.5,-19.5c10.76955,0 19.5,8.73045 19.5,19.5z" fill="#ffffff" stroke="#000000" stroke-width="5" stroke-linecap="butt"/><path d="M311.9375,151c0,10.76955 -8.73045,19.5 -19.5,19.5c-10.76955,0 -19.5,-8.73045 -19.5,-19.5c0,-10.76955 8.73045,-19.5 19.5,-19.5c10.76955,0 19.5,8.73045 19.5,19.5z" fill="#ffffff" stroke="#000000" stroke-width="5" stroke-linecap="butt"/></g></g></svg>