<svg version="1.1" xmlns="http://www.w3.org/2000/svg" xmlns:xlink="http://www.w3.org/1999/xlink" width="138" height="59" viewBox="0,0,138,59"><defs><linearGradient x1="129.4401" y1="316.28057" x2="20.2919" y2="316.27977" gradientUnits="userSpaceOnUse" id="color-1"><stop offset="0" stop-color="#f9cb9c"/><stop offset="1" stop-color="#e06666"/></linearGradient><linearGradient x1="129.4401" y1="316.28057" x2="20.2919" y2="316.27977" gradientUnits="userSpaceOnUse" id="color-2"><stop offset="0" stop-color="#f9cb9c"/><stop offset="1" stop-color="#e06666"/></linearGradient><linearGradient x1="129.4401" y1="316.28057" x2="20.2919" y2="316.27977" gradientUnits="userSpaceOnUse" id="color-3"><stop offset="0" stop-color="#f9cb9c"/><stop offset="1" stop-color="#e06666"/></linearGradient></defs><g transform="translate(-6.25762,-306.71928)"><g data-paper-data="{&quot;isPaintingLayer&quot;:true}" stroke="none" stroke-linejoin="miter" stroke-miterlimit="10" stroke-dasharray="" stroke-dashoffset="0" style="mix-blend-mode: normal"><path d="M6.25762,365.71928v-59h138v59z" fill-opacity="0.00784" fill="#ffffff" fill-rule="nonzero" stroke-width="NaN" stroke-linecap="butt"/><path d="M33.93539,319.01108l-2.39468,11.54594h9.01319c2.20911,0 3.90572,-0.54551 5.0898,-1.63651c1.18408,-1.091 1.9558,-2.5075 2.31516,-4.24948c0.42415,-2.03734 0.11192,-3.49 -0.93667,-4.35798c-1.0486,-0.86798 -2.83945,-1.30197 -5.37257,-1.30197zM31.07238,332.78122l-2.73046,13.16435h9.77312c2.38584,0 4.28275,-0.59975 5.69069,-1.79926c1.41382,-1.20553 2.33282,-2.82696 2.75697,-4.8643c0.38291,-1.85048 0.09426,-3.39657 -0.86598,-4.63827c-0.95434,-1.2417 -2.71574,-1.86254 -5.2842,-1.86254zM42.91323,316.84114c3.14578,0 5.42558,0.64797 6.83941,1.94392c1.41973,1.29594 1.8645,3.22176 1.33431,5.77749c-0.37112,1.77816 -1.10161,3.27903 -2.19144,4.50265c-1.08394,1.21759 -2.377,2.03132 -3.87919,2.44119c1.46096,0.29536 2.57141,0.84085 3.33134,1.63651c0.75995,0.79565 1.243,1.73295 1.44918,2.81189c0.21208,1.07292 0.19145,2.21818 -0.06185,3.43575c-0.324,1.55513 -0.96024,3.00176 -1.90868,4.3399c-0.94255,1.3321 -2.22089,2.39599 -3.83503,3.19164c-1.61412,0.79565 -3.56108,1.19347 -5.84089,1.19347h-17.85848l0.45066,-2.16994h4.40056l5.59348,-26.93449h-4.40056l0.45065,-2.16994z" fill="url(#color-1)" fill-rule="evenodd" stroke-width="1" stroke-linecap="square"/><path d="M63.01466,337.44661c-1.37849,0 -2.69806,0.33453 -3.95873,1.0036c-1.26067,0.66907 -2.07658,1.88965 -2.44771,3.66178c-0.2533,1.22361 -0.05596,2.28146 0.59205,3.17355c0.64801,0.88607 1.74962,1.32909 3.30483,1.32909c1.33725,0 2.73342,-0.27727 4.18848,-0.83182c1.08074,-0.41187 2.28822,-0.99834 3.62245,-1.75937v0l1.20206,-5.78528v0c-0.83276,-0.20735 -1.70161,-0.37779 -2.60655,-0.51129c-1.26067,-0.18685 -2.55963,-0.28028 -3.89688,-0.28028zM66.46972,325.72888c2.0265,0 3.59349,0.34357 4.70099,1.03073c1.10751,0.68112 1.83209,1.59732 2.17377,2.7486c0.34168,1.14525 0.37114,2.40503 0.08836,3.77933l-2.63327,12.65803h3.3667l-0.45066,2.16994h-5.81439l0.16321,-2.13089v0c-1.34567,0.8097 -2.60478,1.43862 -3.77732,1.88677c-1.50808,0.57262 -3.03974,0.85893 -4.59496,0.85893c-2.17377,0 -3.80262,-0.62085 -4.88656,-1.86254c-1.07806,-1.24169 -1.42561,-2.78778 -1.0427,-4.63827c0.34757,-1.66966 0.99262,-2.98367 1.93519,-3.94207c0.94255,-0.96443 2.07068,-1.64857 3.38436,-2.05242c1.31369,-0.40988 2.69512,-0.61482 4.1443,-0.61482c1.30191,0 2.61854,0.10247 3.9499,0.30741c0.92074,0.13696 1.82613,0.30535 2.71615,0.50518v0l0.571,-2.7565c0.41236,-1.96501 0.19734,-3.40862 -0.64507,-4.33086c-0.83651,-0.92825 -2.08834,-1.39239 -3.75549,-1.39239c-1.11928,0 -2.377,0.17481 -3.77316,0.52441c-1.39616,0.34961 -2.73342,0.82278 -4.01176,1.41951l-0.44182,-2.06145c1.49632,-0.73537 3.02797,-1.26881 4.59496,-1.60034c1.5729,-0.33755 2.91899,-0.50632 4.03827,-0.50632z" fill="url(#color-2)" fill-rule="evenodd" stroke-width="1" stroke-linecap="square"/><path d="M98.61187,329.15635zM114.5239,316.28057l-4.19732,20.22573l11.93807,-8.05594h-4.07363l0.45067,-2.16994h10.79814l-0.45065,2.16994h-3.52575l-12.02641,8.27293l7.58167,9.22228h4.5066l-0.45065,2.16994h-5.92043l-8.95134,-11.00344l-1.83798,8.8335h3.69365l-0.45067,2.16994h-10.58606l0.45065,-2.16994h3.96758l5.70834,-27.49505h-3.80849l0.45065,-2.16994zM92.11133,325.67464c2.0265,0 3.64651,0.47317 4.86004,1.41951c0.76994,0.59369 1.31677,1.28109 1.64049,2.0622v0l0.61282,-2.93019h2.5449l-1.49336,7.16988h-2.27981c0.04712,-1.62746 -0.44183,-2.93245 -1.46685,-3.91495c-1.02504,-0.9825 -2.45949,-1.47375 -4.30336,-1.47375c-1.70248,0 -3.28714,0.38878 -4.75402,1.16634c-1.46096,0.77757 -2.70395,1.84144 -3.72898,3.19163c-1.01913,1.3502 -1.71427,2.91437 -2.08541,4.69252c-0.37702,1.81432 -0.33874,3.41767 0.11488,4.81005c0.4536,1.38636 1.24005,2.47736 2.35934,3.273c1.11928,0.79565 2.5125,1.19348 4.17964,1.19348c1.84388,0 3.4521,-0.34056 4.82471,-1.02169c1.37259,-0.68715 2.72457,-1.62445 4.05592,-2.81189l0.81297,1.83542c-1.39618,1.3321 -2.95433,2.38695 -4.6745,3.16451c-1.72017,0.77756 -3.62883,1.16634 -5.72602,1.16634c-2.20911,0 -4.06182,-0.49728 -5.55813,-1.49184c-1.49042,-1.0006 -2.5449,-2.37189 -3.16345,-4.11387c-0.61266,-1.74198 -0.68335,-3.74316 -0.21208,-6.00352c0.4595,-2.21817 1.33725,-4.18016 2.63327,-5.88598c1.29602,-1.70582 2.88658,-3.04697 4.77169,-4.02345c1.89099,-0.9825 3.90278,-1.47375 6.0353,-1.47375z" fill="url(#color-3)" fill-rule="evenodd" stroke-width="1" stroke-linecap="square"/></g></g></svg>