<svg version="1.1" xmlns="http://www.w3.org/2000/svg" xmlns:xlink="http://www.w3.org/1999/xlink" width="138" height="59" viewBox="0,0,138,59"><defs><linearGradient x1="131.41286" y1="316.99415" x2="21.77594" y2="316.99334" gradientUnits="userSpaceOnUse" id="color-1"><stop offset="0" stop-color="#f9cb9c"/><stop offset="1" stop-color="#e06666"/></linearGradient><linearGradient x1="131.41286" y1="316.99415" x2="21.77594" y2="316.99334" gradientUnits="userSpaceOnUse" id="color-2"><stop offset="0" stop-color="#f9cb9c"/><stop offset="1" stop-color="#e06666"/></linearGradient></defs><g transform="translate(-10.0036,-306.58284)"><g data-paper-data="{&quot;isPaintingLayer&quot;:true}" stroke="none" stroke-linejoin="miter" stroke-miterlimit="10" stroke-dasharray="" stroke-dashoffset="0" style="mix-blend-mode: normal"><path d="M10.0036,365.58285v-59h138v59z" fill-opacity="0.00784" fill="#ffffff" fill-rule="nonzero" stroke-width="NaN" stroke-linecap="butt"/><path d="M46.27542,320.89831h0.00001v0zM59.06923,329.59851zM61.73109,317.0485l-2.66186,12.54998v0c1.49025,-0.82176 2.91507,-1.505 4.27449,-2.04973c1.70323,-0.68854 3.37022,-1.03281 5.00099,-1.03281c2.04145,0 3.59067,0.61305 4.64765,1.83913c1.05697,1.22005 1.34386,2.96254 0.86068,5.22747l-2.79946,13.19099h4.12218l-0.46204,2.17434h-11.24315l0.46204,-2.17434h4.12219l2.75416,-12.9645c0.33219,-1.55828 0.17214,-2.77228 -0.48017,-3.64202c-0.65229,-0.87578 -1.68209,-1.31366 -3.08937,-1.31366c-1.41331,0 -2.9716,0.33521 -4.67483,1.00563c-1.32852,0.52007 -2.64041,1.12155 -3.93563,1.80445v0l-3.21251,15.1101h3.73262l-0.46205,2.17434h-10.79923l0.46205,-2.17434h4.05877l5.8526,-27.55069h-3.95005l0.46205,-2.17434zM38.30998,316.99415c2.41594,0 4.37586,0.51036 5.87978,1.5311c0.96299,0.65099 1.65821,1.44201 2.08567,2.37306v0l0.69566,-3.2881h2.67263l-1.83007,8.62488h-2.50049c0.16307,-1.14757 0.05738,-2.24078 -0.31708,-3.27963c-0.36843,-1.03885 -1.12341,-1.89047 -2.26494,-2.55485c-1.13549,-0.67042 -2.74208,-1.00563 -4.81978,-1.00563c-2.26494,0 -4.11313,0.52849 -5.54457,1.58546c-1.4254,1.05697 -2.31929,2.43707 -2.68168,4.1403c-0.41676,1.96898 -0.08154,3.40043 1.00564,4.29432c1.09321,0.88785 2.7451,1.53412 4.95568,1.93878l2.63639,0.39863c2.16226,0.33219 3.89268,0.84256 5.19124,1.5311c1.29856,0.6825 2.16528,1.61867 2.60014,2.80852c0.44091,1.1838 0.46205,2.70584 0.06343,4.56611c-0.34428,1.63076 -1.05093,3.12259 -2.11998,4.47552c-1.06301,1.35292 -2.41291,2.41895 -4.04971,3.19809c-1.63075,0.77914 -3.52122,1.16871 -5.6714,1.16871c-1.70928,0 -3.21923,-0.22952 -4.52988,-0.68854c-1.31064,-0.46507 -2.36459,-1.13247 -3.16184,-2.00221c-0.55967,-0.61479 -0.97945,-1.30696 -1.25934,-2.07652v0l-0.89689,4.21463h-2.67262l2.24681,-10.57273h2.50956c-0.25972,1.73947 -0.16913,3.27057 0.27178,4.59329c0.44695,1.31669 1.31367,2.34648 2.60015,3.08937c1.29253,0.73686 3.05313,1.10529 5.28182,1.10529c2.30119,0 4.17655,-0.53754 5.62611,-1.61263c1.4556,-1.0751 2.38573,-2.57599 2.7904,-4.50269c0.30199,-1.41332 0.30803,-2.53673 0.01812,-3.37023c-0.28386,-0.8335 -0.91202,-1.49184 -1.88442,-1.97502c-0.97242,-0.48319 -2.34043,-0.85464 -4.10406,-1.11435l-2.64545,-0.38957c-2.9414,-0.48319 -5.11876,-1.4103 -6.53208,-2.78134c-1.41333,-1.37708 -1.83611,-3.40043 -1.26837,-6.07003c0.36843,-1.74551 1.07208,-3.23735 2.11092,-4.47551c1.04489,-1.2442 2.38272,-2.20152 4.01347,-2.87194c1.63076,-0.67042 3.46385,-1.00563 5.49927,-1.00563z" fill="url(#color-1)" fill-rule="evenodd" stroke-width="1" stroke-linecap="square"/><path d="M114.23854,329.25063zM92.85652,328.799c-1.70323,0 -3.28567,0.38051 -4.74731,1.14153c-1.46164,0.76102 -2.70886,1.82705 -3.74167,3.19809c-1.03282,1.37104 -1.7425,2.96556 -2.12905,4.78355c-0.39863,1.86026 -0.37447,3.48498 0.07248,4.87414c0.44695,1.38917 1.23515,2.48539 2.3646,3.28869c1.12944,0.79726 2.54578,1.19588 4.24902,1.19588c1.74551,0 3.36116,-0.39863 4.84697,-1.19588c1.4858,-0.8033 2.74811,-1.89953 3.78697,-3.28869c1.03886,-1.38916 1.75759,-3.01387 2.15623,-4.87414c0.38654,-1.81799 0.35333,-3.41251 -0.09967,-4.78355c-0.45297,-1.37104 -1.25628,-2.43707 -2.40989,-3.19809c-1.15361,-0.76102 -2.60315,-1.14153 -4.34868,-1.14153zM121.51097,328.85335c-0.85767,0 -1.82706,0.14798 -2.90817,0.44393c-1.08114,0.29595 -2.18341,0.72478 -3.30681,1.28648c-0.50488,0.25107 -0.99,0.53235 -1.45543,0.84384v0l-2.74934,13.17388v0c0.63648,0.62931 1.38576,1.16911 2.24786,1.6194c1.35293,0.70666 2.73303,1.05999 4.1403,1.05999c2.48843,0 4.70202,-0.81538 6.6408,-2.44613c1.94483,-1.63679 3.22527,-3.90173 3.84133,-6.79481c0.59796,-2.8206 0.28389,-5.05534 -0.94221,-6.70421c-1.2261,-1.65491 -3.06221,-2.48237 -5.50832,-2.48237zM93.3548,326.4616c2.33741,0 4.29432,0.47413 5.87072,1.42238c1.58245,0.94222 2.69075,2.27702 3.32494,4.00441c0.63417,1.72739 0.70968,3.73865 0.22648,6.03379c-0.48921,2.30117 -1.42237,4.33358 -2.79945,6.09721c-1.37708,1.76364 -3.06221,3.13769 -5.05535,4.12219c-1.99314,0.98449 -4.15842,1.47674 -6.49583,1.47674c-2.30117,0 -4.22789,-0.49225 -5.78012,-1.47674c-1.54619,-0.98449 -2.63639,-2.34648 -3.27056,-4.08595c-0.63419,-1.74551 -0.70063,-3.79 -0.19932,-6.13345c0.48318,-2.29514 1.4103,-4.3064 2.78134,-6.03379c1.37104,-1.72739 3.03804,-3.06219 5.00097,-4.00441c1.96295,-0.94825 4.09501,-1.42238 6.39618,-1.42238zM122.67063,326.51595c2.07769,0 3.83528,0.45601 5.27277,1.36802c1.44352,0.90598 2.44915,2.20454 3.0169,3.89569c0.56773,1.68511 0.60096,3.71449 0.09965,6.08815c-0.51339,2.41594 -1.44655,4.49666 -2.79947,6.24217c-1.3529,1.73947 -2.97159,3.07428 -4.85601,4.00441c-1.88444,0.9241 -3.86851,1.38614 -5.95227,1.38614c-1.11132,0 -2.18036,-0.15704 -3.20714,-0.47111c-1.02678,-0.31407 -1.91765,-0.74894 -2.67262,-1.3046c-0.36634,-0.26963 -0.68789,-0.55276 -0.96464,-0.84941v0l-1.87106,8.53207h4.06783l-0.453,2.16528h-10.917l0.453,-2.16528h3.90474l5.56269,-26.16455h-3.67824l0.46203,-2.17434h6.51397l-0.41421,2.18202v0c0.98553,-0.66141 2.0628,-1.21964 3.23178,-1.67468c1.79988,-0.70666 3.53331,-1.05999 5.20031,-1.05999z" fill="url(#color-2)" fill-rule="evenodd" stroke-width="1" stroke-linecap="square"/></g></g></svg>